<?xml version="1.0" encoding="UTF-8"?>
<svg id="Layer_2" data-name="Layer 2" xmlns="http://www.w3.org/2000/svg" viewBox="0 0 1303.14 1080.13">
  <defs>
    <style>
      .cls-1 {
        fill: #ff312d;
      }
    </style>
  </defs>
  <g id="Layer_1-2" data-name="Layer 1">
    <g>
      <path class="cls-1" d="M55.37,607.57L410.36,237.42V0h218.45v1080.13H199.49c-109.99,0-199.49-89.51-199.49-199.49v-136.53c0-50.82,19.72-100.12,55.37-136.53ZM410.36,512.76l-176.74,185.08c-9.86,9.86-15.93,23.51-15.93,37.17v99.37c0,15.17,6.07,28.82,16.69,38.68,9.86,10.62,23.51,16.69,38.68,16.69h137.29v-376.98Z"/>
      <path class="cls-1" d="M1303.14,744.11v136.53c0,109.98-89.5,199.49-200.25,199.49h-428.57V0h217.7v237.42l355.74,370.16c35.65,36.41,55.37,85.71,55.37,136.53ZM892.02,889.74h138.05c14.41,0,28.83-6.07,38.68-16.69,10.62-9.86,15.93-23.51,15.93-38.68v-99.37c0-13.65-5.31-27.31-15.17-37.17l-177.49-185.08v376.98Z"/>
    </g>
  </g>
</svg>