<?xml version="1.0" encoding="UTF-8"?>
<svg id="Layer_2" data-name="Layer 2" xmlns="http://www.w3.org/2000/svg" viewBox="0 0 1693.49 1224.63">
  <defs>
    <style>
      .cls-1 {
        fill: #fffff9;
      }

      .cls-2 {
        fill: #fff;
      }

      .cls-3 {
        fill: none;
        stroke: #fff;
        stroke-miterlimit: 10;
        stroke-width: 12px;
      }

      .cls-4 {
        fill: #ff312d;
      }
    </style>
  </defs>
  <g id="Layer_1-2" data-name="Layer 1">
    <g>
      <g>
        <path class="cls-1" d="M205.57,532.11H0V3.71h205.57c51.58,0,93.14,41.56,93.14,92.77v342.86c0,51.21-41.56,92.77-93.14,92.77ZM106.87,96.85v342.12h58.63c7.05,0,13.73-2.97,18.55-7.79,5.19-5.2,7.79-11.87,7.79-18.92V123.2c0-6.68-2.6-13.36-7.79-18.55-4.82-4.83-11.5-7.79-18.55-7.79h-58.63Z"/>
        <path class="cls-1" d="M619.31,3.71v528.39h-106.87v-228.58l-84.97,51.21v177.37h-106.5V3.71h106.5v241.93l84.97-50.84V3.71h106.87Z"/>
        <path class="cls-1" d="M748.08,435.25v96.85h-106.5V92.77c0-51.21,41.56-92.77,92.77-92.77h112.8c51.21,0,92.77,41.56,92.77,92.77v439.34h-106.87v-147.68l-84.97,50.83ZM774.8,93.51c-14.47,0-26.72,11.87-26.72,26.34v206.68l84.97-51.2V119.85c0-7.05-2.6-13.73-7.79-18.55-4.82-5.2-11.5-7.79-18.92-7.79h-31.54Z"/>
        <path class="cls-1" d="M1068.69,304.27v227.83h-106.5V3.71h106.5v162.52l31.91,34.51,40.07-43.78c14.47-15.59,22.26-36,22.26-57.15V3.71h106.87v101.67c0,31.54-11.87,61.96-33.39,85.34l-72.36,79.04,72.36,79.03c21.52,23.37,33.39,53.43,33.39,84.97v98.33h-106.87v-92.4c0-21.15-7.79-41.56-22.26-57.14l-71.98-78.29Z"/>
        <path class="cls-1" d="M1398.57,435.25v96.85h-106.5V92.77c0-51.21,41.56-92.77,92.77-92.77h112.8c51.21,0,92.77,41.56,92.77,92.77v439.34h-106.87v-147.68l-84.97,50.83ZM1425.29,93.51c-14.47,0-26.72,11.87-26.72,26.34v206.68l84.97-51.2V119.85c0-7.05-2.6-13.73-7.79-18.55-4.82-5.2-11.5-7.79-18.92-7.79h-31.54Z"/>
      </g>
      <path class="cls-4" d="M644.4,983.57v-57.76c0-17.84,8.91-34.77,24.49-47.17l166.98-131.84v-26.61c0-5.75-2.6-11.19-7.42-15.42-5.19-3.93-11.87-6.04-18.92-6.04h-31.91c-7.05,0-13.73,2.11-18.92,6.04-4.82,4.23-7.79,9.67-7.79,15.42v75.29l-106.49-64.41v-32.96c0-41.72,41.56-75.59,92.77-75.59h112.8c51.21,0,92.77,33.87,92.77,75.59v285.46c0,41.73-41.56,75.59-92.77,75.59h-112.8c-51.21,0-92.77-33.86-92.77-75.59ZM835.86,852.64l-64.56,51.1c-12.99,10.29-20.41,24.19-20.41,38.71v19.05c0,5.74,2.97,11.18,7.79,15.42,5.19,3.93,11.87,6.05,18.92,6.05h31.91c7.05,0,13.73-2.12,18.92-6.05,4.82-4.23,7.42-9.67,7.42-15.42v-108.86Z"/>
      <path class="cls-1" d="M307.61,892.85v66.79c0,53.8-43.78,97.59-97.96,97.59H0v-528.39h106.5v116.14l174.03,181.08c17.44,17.81,27.09,41.93,27.09,66.79ZM106.5,964.1h67.53c7.05,0,14.1-2.97,18.92-8.16,5.19-4.83,7.79-11.51,7.79-18.92v-48.61c0-6.68-2.6-13.36-7.42-18.18l-86.83-90.54v184.41Z"/>
      <path class="cls-1" d="M960.9,962.48v-439.34h106.49v88.31h191.84v93.51h-191.84v230.43c0,7.05,2.97,13.73,7.79,18.92,5.19,4.82,11.87,7.42,18.92,7.42h31.91c7.05,0,13.73-2.59,18.92-7.42,4.82-5.2,7.42-11.87,7.42-18.92v-64.93l106.87-78.67v170.69c0,51.2-41.56,92.76-92.77,92.76h-112.8c-51.21,0-92.77-41.56-92.77-92.76Z"/>
      <path class="cls-4" d="M326.66,983.29v-285.03c0-41.67,41.9-75.48,93.54-75.48h113.74c51.63,0,93.54,33.81,93.54,75.48v64.62c0,24.46-14.59,47.7-38.91,62.5l-154.52,92.09v43.78c0,5.74,2.99,11.18,7.86,15.4,5.24,3.92,11.97,6.04,19.08,6.04h32.18c7.11,0,13.84-2.11,19.08-6.04,4.86-4.23,7.48-9.67,7.48-15.4v-52.84l107.75-64.01v138.89c0,41.67-41.9,75.48-93.54,75.48h-113.74c-51.63,0-93.54-33.82-93.54-75.48ZM493.15,787.63c16.84-9.96,26.56-25.97,26.56-42.87v-24.46c0-5.74-2.62-11.17-7.48-15.4-5.24-3.92-11.97-6.04-19.08-6.04h-32.18c-7.11,0-13.84,2.11-19.08,6.04-4.86,4.23-7.86,9.66-7.86,15.4v102.66l59.12-35.33Z"/>
      <path class="cls-1" d="M1338.94,781.67c-27.76-17.9-44.2-48.59-44.2-81.1v-78.91c0-50.42,40.92-91.33,91.33-91.33h111.06c50.42,0,91.33,40.92,91.33,91.33v55.16l-105.22,77.82v-106.31c0-6.94-2.56-13.52-7.31-18.63-5.12-4.75-11.69-7.31-18.63-7.31h-31.42c-6.94,0-13.52,2.56-18.63,7.31-4.75,5.12-7.67,11.69-7.67,18.63v31.42c0,20.09,10.23,38.72,27.04,49.68l117.64,77.09c27.4,17.9,44.21,48.23,44.21,81.1v78.91c0,50.42-40.92,91.33-91.33,91.33h-111.06c-50.41,0-91.33-40.92-91.33-91.33v-168.05l104.85,77.45v63.93c0,6.94,2.93,13.52,7.67,18.63,5.12,4.75,11.69,7.31,18.63,7.31h31.42c6.94,0,13.52-2.56,18.63-7.31,4.75-5.12,7.31-11.69,7.31-18.63v-31.42c0-20.09-9.86-38.73-27.03-49.69l-117.27-77.09Z"/>
    </g>
    <circle class="cls-3" cx="1616.04" cy="1147.17" r="71.45"/>
    <path class="cls-2" d="M1592.25,1105.11c5.85-1.2,14.23-1.86,22.21-1.86,12.37,0,20.35,2.26,25.94,7.32,4.52,3.99,7.05,10.11,7.05,17.03,0,11.84-7.45,19.69-16.89,22.88v.4c6.92,2.39,11.04,8.78,13.17,18.09,2.93,12.5,5.06,21.15,6.92,24.61h-11.97c-1.46-2.53-3.46-10.24-5.99-21.42-2.66-12.37-7.45-17.03-17.96-17.43h-10.91v38.84h-11.57v-88.46ZM1603.82,1145.94h11.84c12.37,0,20.22-6.78,20.22-17.03,0-11.57-8.38-16.63-20.62-16.76-5.59,0-9.58.53-11.44,1.06v32.72Z"/>
  </g>
</svg>